<svg width="24.000000" height="24.000000" viewBox="0 0 24 24" fill="none" xmlns="http://www.w3.org/2000/svg" xmlns:xlink="http://www.w3.org/1999/xlink">
	<desc>
			Created with Pixso.
	</desc>
	<defs>
		<clipPath id="clip207_28">
			<rect id="timer" width="24.000000" height="24.000000" fill="white" fill-opacity="0"/>
		</clipPath>
	</defs>
	<rect id="timer" width="24.000000" height="24.000000" fill="#FFFFFF" fill-opacity="0"/>
	<g clip-path="url(#clip207_28)">
		<g opacity="0.500000">
			<path id="Vector" d="M15 1L9 1L9 3L15 3L15 1ZM11 14L13 14L13 8L11 8L11 14ZM19.03 7.39L20.45 5.96C20.02 5.45 19.54 4.97 19.04 4.56L17.62 5.97C16.07 4.73 14.12 4 12 4C7.03 4 3 8.03 3 13C3 17.96 7.02 22 12 22C16.98 22 21 17.96 21 13C21 10.88 20.26 8.93 19.03 7.39ZM12 20C8.12 20 5 16.87 5 13C5 9.13 8.12 6 12 6C15.87 6 19 9.13 19 13C19 16.87 15.87 20 12 20Z" fill="#000000" fill-opacity="1.000000" fill-rule="nonzero"/>
		</g>
	</g>
</svg>
