<svg width="24.000488" height="24.000000" viewBox="0 0 24.0005 24" fill="none" xmlns="http://www.w3.org/2000/svg" xmlns:xlink="http://www.w3.org/1999/xlink">
	<desc>
			Created with Pixso.
	</desc>
	<defs/>
	<path id="Vector" d="M23.3 0.78L23.22 0.69C23 0.47 22.73 0.3 22.45 0.18C22.16 0.06 21.85 0 21.54 0C21.23 0 20.92 0.06 20.63 0.18C20.34 0.3 20.08 0.47 19.86 0.69L15.84 4.73C11.83 2.24 6.51 2.73 3.04 6.22C-1.02 10.29 -1.02 16.88 3.04 20.94C7.09 25.01 13.66 25.01 17.72 20.94C21.17 17.49 21.68 12.2 19.26 8.2L23.3 4.14C23.75 3.7 24 3.09 24 2.46C24 1.83 23.75 1.22 23.3 0.78ZM15.25 16.28C13.61 19.92 9.78 21.74 6.7 20.35C3.61 18.95 2.44 14.86 4.08 11.22C5.72 7.57 9.54 5.75 12.63 7.15C15.71 8.55 16.89 12.64 15.25 16.28ZM21.44 4.05C21.04 4.05 20.67 3.89 20.39 3.61C20.11 3.33 19.95 2.95 19.95 2.56C19.95 1.74 20.62 1.07 21.44 1.07C22.26 1.07 22.93 1.74 22.93 2.56C22.93 2.95 22.77 3.33 22.49 3.61C22.21 3.89 21.83 4.05 21.44 4.05Z" fill="#F29E1F" fill-opacity="1.000000" fill-rule="nonzero"/>
	<path id="Vector" d="M11.58 13.58C11.58 15.35 10.14 16.78 8.38 16.78C6.61 16.78 5.18 15.35 5.18 13.58C5.18 11.81 6.61 10.38 8.38 10.38C10.14 10.38 11.58 11.81 11.58 13.58Z" fill="#F29E1F" fill-opacity="1.000000" fill-rule="evenodd"/>
</svg>
