<svg width="24.000000" height="23.000061" viewBox="0 0 24 23.0001" fill="none" xmlns="http://www.w3.org/2000/svg" xmlns:xlink="http://www.w3.org/1999/xlink">
	<desc>
			Created with Pixso.
	</desc>
	<defs/>
	<path id="Vector" d="M4.49 21.55L19.53 21.55L19.53 23L4.49 23L4.49 21.55Z" fill="#F29E1F" fill-opacity="1.000000" fill-rule="evenodd"/>
	<path id="Vector" d="M18.7 4.66C18.36 3.32 17.56 2.14 16.43 1.3C15.31 0.45 13.92 -0.01 12.49 0C11.02 -0.01 9.59 0.48 8.45 1.37C7.31 2.26 6.52 3.51 6.23 4.89C5.82 4.79 5.4 4.73 4.98 4.72C4.32 4.72 3.67 4.85 3.07 5.09C2.46 5.33 1.92 5.68 1.45 6.12C0.99 6.57 0.62 7.1 0.37 7.68C0.12 8.26 -0.01 8.88 0 9.51C0 12.15 1.78 14.3 4.53 14.3C4.56 14.3 4.59 14.29 4.62 14.29L4.62 20.04L19.47 20.04L19.47 15.15C22.3 14.95 24 12.68 24 9.91C23.99 8.55 23.44 7.24 22.45 6.26C21.46 5.28 20.12 4.7 18.7 4.66ZM11.86 2.46C10.59 3.25 9.78 4.49 9.78 5.89L7.82 5.89C7.82 3.87 9.53 2.17 11.83 1.7C12.25 1.61 12.51 2.06 11.86 2.46Z" fill="#F29E1F" fill-opacity="1.000000" fill-rule="evenodd"/>
</svg>
