<svg width="24.000000" height="23.000000" viewBox="0 0 24 23" fill="none" xmlns="http://www.w3.org/2000/svg" xmlns:xlink="http://www.w3.org/1999/xlink">
	<desc>
			Created with Pixso.
	</desc>
	<defs/>
	<path id="Vector" d="M13.96 0L12.76 1.2L14.54 2.99C14.79 3.27 14.91 3.6 14.91 3.97C14.91 4.34 14.79 4.68 14.54 4.93L10.58 8.97L11.7 10.18L15.75 6.14C16.34 5.48 16.63 4.75 16.63 3.97C16.63 3.18 16.34 2.45 15.75 1.79L13.96 0ZM9.53 2.26L8.32 3.46L9 4.09C9.25 4.34 9.37 4.67 9.37 5.09C9.37 5.5 9.25 5.84 9 6.08L8.32 6.71L9.53 7.92L10.15 7.24C10.74 6.58 11.04 5.86 11.04 5.09C11.04 4.28 10.74 3.55 10.15 2.88L9.53 2.26ZM21.17 4.04C20.41 4.04 19.69 4.34 19.03 4.93L12.76 11.24L13.96 12.36L20.18 6.14C20.46 5.86 20.8 5.71 21.17 5.71C21.55 5.71 21.89 5.86 22.17 6.14L22.85 6.82L24 5.61L23.37 4.93C22.71 4.34 21.98 4.04 21.17 4.04ZM5.57 7.33L0 23L15.6 17.4L5.57 7.33ZM18.95 10.75C18.16 10.75 17.45 11.05 16.78 11.65L15.01 13.43L16.21 14.63L17.99 12.85C18.27 12.58 18.58 12.43 18.95 12.43C19.31 12.43 19.65 12.58 19.93 12.85L21.73 14.63L22.9 13.48L21.12 11.65C20.46 11.05 19.73 10.75 18.95 10.75Z" fill="#F29E1F" fill-opacity="1.000000" fill-rule="nonzero"/>
</svg>
