<svg width="20.000000" height="18.349998" viewBox="0 0 20 18.35" fill="none" xmlns="http://www.w3.org/2000/svg" xmlns:xlink="http://www.w3.org/1999/xlink">
	<desc>
			Created with Pixso.
	</desc>
	<defs/>
	<path id="Vector" d="M14.5 0C12.75 0 11.08 0.8 10 2.08C8.91 0.8 7.24 0 5.5 0C2.41 0 0 2.42 0 5.5C0 9.28 3.39 12.36 8.54 17.04L10 18.35L11.45 17.03C16.6 12.36 20 9.28 20 5.5C20 2.42 17.58 0 14.5 0ZM10.1 15.55L10 15.65L9.89 15.55C5.14 11.24 2 8.39 2 5.5C2 3.5 3.5 2 5.5 2C7.04 2 8.54 2.99 9.06 4.36L10.93 4.36C11.46 2.99 12.96 2 14.5 2C16.5 2 18 3.5 18 5.5C18 8.39 14.85 11.24 10.1 15.55Z" fill="#FDB100" fill-opacity="1.000000" fill-rule="nonzero"/>
</svg>
