<svg width="48.000000" height="56.000000" viewBox="0 0 48 56" fill="none" xmlns="http://www.w3.org/2000/svg" xmlns:xlink="http://www.w3.org/1999/xlink">
	<desc>
			Created with Pixso.
	</desc>
	<defs/>
	<g opacity="0.500000">
		<path id="Vector" d="M32 0L16 0L16 5.33L32 5.33L32 0ZM21.33 34.66L26.66 34.66L26.66 18.66L21.33 18.66L21.33 34.66ZM42.74 17.04L46.53 13.25C45.38 11.89 44.13 10.61 42.77 9.49L38.98 13.28C34.85 9.97 29.65 8 24 8C10.74 8 0 18.74 0 32C0 45.25 10.72 56 24 56C37.27 56 48 45.25 48 32C48 26.34 46.02 21.14 42.74 17.04ZM24 50.66C13.68 50.66 5.33 42.32 5.33 32C5.33 21.68 13.68 13.33 24 13.33C34.31 13.33 42.66 21.68 42.66 32C42.66 42.32 34.31 50.66 24 50.66Z" fill="#FDB100" fill-opacity="1.000000" fill-rule="nonzero"/>
	</g>
</svg>
