<svg xmlns="http://www.w3.org/2000/svg" xmlns:xlink="http://www.w3.org/1999/xlink" version="1.1" width="1000" height="1000" viewBox="0 0 1000 1000" xml:space="preserve">
<desc>Created with Fabric.js 3.5.0</desc>
<defs>
</defs>
<rect x="0" y="0" width="100%" height="100%" fill="#ffffff"/>
<g transform="matrix(9.0457 0 0 9.0457 500 283.6534)" id="979998">
<path style="stroke: none; stroke-width: 0; stroke-dasharray: none; stroke-linecap: butt; stroke-dashoffset: 0; stroke-linejoin: miter; stroke-miterlimit: 4; is-custom-font: none; font-file-url: none; fill: rgb(253,177,0); fill-rule: evenodd; opacity: 1;" vector-effect="non-scaling-stroke" transform=" translate(-50.25, -17.52)" d="M 53.1 0 L 53.41 9.46 L 52.13 9.5 L 51.86 1.17 L 45.92 1.37 L 46.19 9.7 L 44.92 9.74 L 44.6 0.27 L 53.1 0 Z M 64.69 3.11 L 61.17 2.48 L 59.7 10.68 L 58.44 10.45 L 59.91 2.25 L 56.39 1.62 L 56.59 0.5 L 64.9 1.99 L 64.69 3.11 Z M 41.08 5.62 L 33.43 7.68 Q 33.74 8.56 34.34 9.13 Q 34.69 9.46 35.15 9.69 C 35.97 10.1 36.88 10.16 37.89 9.89 Q 38.74 9.66 39.37 9.17 C 39.79 8.84 40.12 8.42 40.36 7.94 L 41.27 8.55 C 41 9.14 40.59 9.65 40.04 10.07 C 39.51 10.49 38.88 10.8 38.15 10.99 C 37.21 11.25 36.32 11.27 35.48 11.08 Q 34.81 10.9 34.24 10.56 Q 33.76 10.27 33.35 9.86 C 32.75 9.27 32.34 8.52 32.09 7.63 Q 31.89 6.88 31.89 6.18 Q 31.89 5.72 31.98 5.28 Q 32 5.18 32.02 5.08 C 32.23 4.26 32.61 3.57 33.18 2.99 C 33.75 2.42 34.47 2.01 35.31 1.78 C 36.16 1.56 36.97 1.55 37.75 1.76 C 38.53 1.97 39.2 2.38 39.77 2.99 C 40.34 3.58 40.75 4.33 40.99 5.23 L 41.08 5.62 Z M 35.6 2.84 C 34.72 3.08 34.05 3.57 33.6 4.3 C 33.28 4.82 33.12 5.4 33.12 6.03 C 33.12 6.27 33.14 6.51 33.18 6.76 L 39.67 5.01 C 39.34 4.13 38.8 3.49 38.05 3.1 Q 37.66 2.88 37.24 2.79 Q 36.47 2.61 35.6 2.84 Z M 31.79 11.18 L 33.44 14.25 L 32.38 14.83 L 31.26 12.73 L 23.63 16.83 L 19.15 8.49 L 20.27 7.89 L 24.23 15.24 L 29.32 12.51 L 25.36 5.15 L 26.49 4.55 L 30.44 11.9 L 31.79 11.18 Z M 79.9 18.26 L 78.23 21.22 L 77.17 20.63 L 78.3 18.64 L 70.91 14.48 L 69.79 16.47 L 68.74 15.88 L 70.41 12.91 L 70.88 13.18 C 71.45 13.46 72.06 13.26 72.7 12.59 C 73.34 11.92 74.09 10.9 74.96 9.53 L 76.63 6.83 L 82.71 10.26 L 78.61 17.54 L 79.9 18.26 Z M 75.94 10.17 Q 74.88 11.88 74.01 12.9 C 73.44 13.57 72.89 13.94 72.35 14.01 L 77.5 16.91 L 81.04 10.62 L 77.07 8.38 L 75.94 10.17 Z M 18.36 14.85 L 12.43 20.09 Q 13.09 20.74 13.88 20.99 Q 14.35 21.13 14.86 21.14 Q 15.18 21.13 15.49 21.08 Q 16.5 20.89 17.4 20.09 C 17.84 19.7 18.18 19.27 18.41 18.79 C 18.64 18.31 18.75 17.79 18.75 17.25 L 18.75 17.24 L 19.84 17.39 C 19.84 17.43 19.84 17.47 19.84 17.5 C 19.84 18.12 19.7 18.72 19.41 19.3 C 19.12 19.91 18.69 20.47 18.13 20.97 Q 17.05 21.92 15.82 22.22 Q 15.8 22.22 15.78 22.23 Q 15.1 22.37 14.43 22.32 Q 13.87 22.27 13.33 22.09 Q 13.12 22.02 12.93 21.93 Q 11.97 21.51 11.21 20.64 C 10.6 19.95 10.2 19.2 10.01 18.39 C 9.93 18.05 9.9 17.71 9.9 17.38 C 9.9 16.91 9.97 16.46 10.12 16.01 C 10.38 15.23 10.84 14.56 11.49 13.98 C 12.15 13.4 12.87 13.03 13.67 12.87 C 14.46 12.72 15.24 12.79 16.03 13.07 C 16.8 13.35 17.5 13.84 18.12 14.54 L 18.36 14.85 Z M 86.91 13.64 L 87.85 14.51 L 85.01 17.6 L 89.39 21.63 L 92.23 18.54 L 93.17 19.4 L 86.77 26.37 L 85.82 25.51 L 88.65 22.44 L 84.27 18.4 L 81.44 21.48 L 80.5 20.61 L 86.91 13.64 Z M 12.22 14.8 Q 11.59 15.36 11.3 16.05 Q 11.12 16.49 11.08 16.99 C 11.07 17.09 11.06 17.19 11.06 17.29 C 11.06 18.02 11.31 18.71 11.8 19.38 L 16.83 14.93 Q 16.12 14.26 15.29 14.04 L 15.29 14.04 Q 14.92 13.94 14.53 13.94 Q 14.09 13.92 13.67 14.02 L 13.67 14.02 Q 12.9 14.2 12.22 14.8 Z M 2.76 23.15 C 3.27 22.43 3.9 21.89 4.65 21.54 C 5.39 21.18 6.18 21.05 7.01 21.14 C 7.84 21.23 8.64 21.54 9.41 22.08 C 10.18 22.63 10.75 23.29 11.11 24.04 C 11.4 24.66 11.55 25.29 11.55 25.95 Q 11.55 26.18 11.52 26.41 C 11.44 27.22 11.13 27.99 10.61 28.72 Q 9.99 29.6 9.14 30.09 L 9.14 30.09 Q 9.08 30.12 9.02 30.15 C 8.41 30.47 7.73 30.61 7 30.58 L 11.31 33.63 L 10.57 34.67 L 0 27.17 L 0.7 26.17 L 2.23 27.26 Q 1.96 26.63 1.91 25.98 L 1.91 25.98 Q 1.9 25.83 1.9 25.68 Q 1.9 25.44 1.93 25.19 Q 1.94 25.08 1.96 24.98 L 1.96 24.98 Q 2.14 24.02 2.76 23.15 Z M 9.64 28.14 C 10.02 27.6 10.24 27.03 10.31 26.41 C 10.32 26.31 10.33 26.2 10.33 26.1 C 10.33 25.59 10.21 25.1 9.97 24.62 C 9.69 24.04 9.25 23.54 8.67 23.13 C 8.08 22.71 7.47 22.47 6.84 22.41 C 6.21 22.32 5.61 22.41 5.04 22.67 C 4.47 22.93 4 23.33 3.62 23.87 C 3.23 24.42 3 25 2.95 25.62 C 2.94 25.72 2.93 25.81 2.93 25.91 C 2.93 26.42 3.05 26.92 3.29 27.41 Q 3.7 28.26 4.59 28.88 C 5.17 29.3 5.78 29.55 6.42 29.63 C 7.06 29.7 7.66 29.61 8.22 29.36 C 8.77 29.1 9.25 28.69 9.64 28.14 Z M 100.5 29.66 L 92.71 35.04 L 92.04 34.08 L 94.62 32.3 L 92.73 29.56 L 88.91 29.53 L 88.12 28.39 L 92.18 28.45 C 92.04 28.03 91.97 27.63 91.97 27.26 C 91.97 26.98 92.01 26.72 92.08 26.46 C 92.26 25.86 92.66 25.34 93.29 24.91 C 94.16 24.31 95.02 24.15 95.89 24.43 Q 97.18 24.85 98.24 26.39 L 100.5 29.66 Z M 93.99 26 C 93.38 26.42 93.07 26.94 93.07 27.56 C 93.07 28.1 93.31 28.71 93.78 29.4 L 95.41 31.76 L 98.9 29.34 L 97.33 27.06 C 96.28 25.54 95.17 25.19 93.99 26 Z" stroke-linecap="round"/>
</g>
<g transform="matrix(1 0 0 1 500 500)" id="168723">
<g style="" vector-effect="non-scaling-stroke">
		<g transform="matrix(1 0 0 1 0 0)" id="Vector">
<path style="stroke: none; stroke-width: 1; stroke-dasharray: none; stroke-linecap: butt; stroke-dashoffset: 0; stroke-linejoin: miter; stroke-miterlimit: 4; is-custom-font: none; font-file-url: none; fill: rgb(255,255,255); fill-rule: nonzero; opacity: 1;" transform=" translate(-25, -25)" d="M 25 0 C 11.19 0 0 11.19 0 24.99 C 0 38.8 11.19 50 25 50 C 38.8 50 50 38.8 50 24.99 C 50 11.18 38.8 0 25 0 Z M 43.45 39.51 C 43.02 39.95 42.51 40.29 41.95 40.53 C 41.39 40.76 40.78 40.88 40.17 40.87 C 38.2 40.87 36.04 39.76 33.92 37.64 C 33.09 36.81 32.36 36.08 32.02 35.64 C 33.35 35.03 34.59 34.22 35.7 33.26 L 42.03 38.09 L 37.19 31.75 C 38.15 30.63 38.92 29.36 39.47 27.99 C 39.89 28.29 40.68 29.08 41.58 29.98 C 45.1 33.5 45.81 37.15 43.45 39.51 Z M 42.76 28.8 C 41.37 27.41 40.62 26.67 39.98 26.37 C 40.01 25.52 38.88 25.2 38.42 25.84 C 34.81 30.93 30.54 32.22 25 32.22 C 19.45 32.22 15.18 30.93 11.57 25.84 C 11.07 25.14 9.74 25.58 10.04 26.61 C 11.93 33.28 18.37 37.17 25 37.17 C 26.84 37.16 28.68 36.86 30.43 36.26 C 30.78 36.86 31.51 37.58 32.74 38.82 C 35.03 41.11 37.44 42.37 39.74 42.51 C 35.75 45.88 30.61 47.91 25 47.91 C 12.36 47.91 2.08 37.63 2.08 24.99 C 2.08 12.36 12.36 2.08 25 2.08 C 37.63 2.08 47.91 12.36 47.91 24.99 C 47.91 28.15 47.27 31.16 46.1 33.9 C 45.6 32.32 44.56 30.6 42.76 28.8 Z" stroke-linecap="round"/>
</g>
		<g transform="matrix(1 0 0 1 -9.1161 -8.7043)" id="Vector">
<path style="stroke: none; stroke-width: 1; stroke-dasharray: none; stroke-linecap: butt; stroke-dashoffset: 0; stroke-linejoin: miter; stroke-miterlimit: 4; is-custom-font: none; font-file-url: none; fill: rgb(255,255,255); fill-rule: nonzero; opacity: 1;" transform=" translate(-15.8839, -16.2957)" d="M 15.88 12.65 C 13.55 12.65 11.21 14.78 9.67 19.04 C 9.51 19.47 10.31 20.24 10.71 19.82 C 12.21 18.24 14.01 17.61 15.88 17.61 C 17.76 17.61 19.55 18.24 21.06 19.82 C 21.46 20.24 22.25 19.47 22.1 19.04 C 20.55 14.78 18.22 12.65 15.88 12.65 Z" stroke-linecap="round"/>
</g>
		<g transform="matrix(1 0 0 1 9.11 -8.7043)" id="Vector">
<path style="stroke: none; stroke-width: 1; stroke-dasharray: none; stroke-linecap: butt; stroke-dashoffset: 0; stroke-linejoin: miter; stroke-miterlimit: 4; is-custom-font: none; font-file-url: none; fill: rgb(255,255,255); fill-rule: nonzero; opacity: 1;" transform=" translate(-34.11, -16.2957)" d="M 34.11 12.65 C 31.77 12.65 29.44 14.78 27.89 19.04 C 27.74 19.47 28.54 20.24 28.94 19.82 C 30.44 18.24 32.23 17.61 34.11 17.61 C 35.98 17.61 37.78 18.24 39.28 19.82 C 39.68 20.24 40.48 19.47 40.33 19.04 C 38.78 14.78 36.44 12.65 34.11 12.65 Z" stroke-linecap="round"/>
</g>
</g>
</g>
<g transform="matrix(8.1049 0 0 8.1049 499.9983 560.1523)" id="584687">
<circle style="stroke: none; stroke-width: 1; stroke-dasharray: none; stroke-linecap: butt; stroke-dashoffset: 0; stroke-linejoin: miter; stroke-miterlimit: 4; is-custom-font: none; font-file-url: none; fill: rgb(253,177,0); fill-rule: nonzero; opacity: 1;" vector-effect="non-scaling-stroke" cx="0" cy="0" r="40"/>
</g>
<g transform="matrix(8.5879 0 0 8.5879 499.9989 560.4625)" id="968174">
<g style="" vector-effect="non-scaling-stroke">
		<g transform="matrix(1 0 0 1 0 0)" id="Vector">
<path style="stroke: none; stroke-width: 1; stroke-dasharray: none; stroke-linecap: butt; stroke-dashoffset: 0; stroke-linejoin: miter; stroke-miterlimit: 4; is-custom-font: none; font-file-url: none; fill: rgb(255,255,255); fill-rule: nonzero; opacity: 1;" transform=" translate(-25, -25)" d="M 25 0 C 11.19 0 0 11.19 0 24.99 C 0 38.8 11.19 50 25 50 C 38.8 50 50 38.8 50 24.99 C 50 11.18 38.8 0 25 0 Z M 43.45 39.51 C 43.02 39.95 42.51 40.29 41.95 40.53 C 41.39 40.76 40.78 40.88 40.17 40.87 C 38.2 40.87 36.04 39.76 33.92 37.64 C 33.09 36.81 32.36 36.08 32.02 35.64 C 33.35 35.03 34.59 34.22 35.7 33.26 L 42.03 38.09 L 37.19 31.75 C 38.15 30.63 38.92 29.36 39.47 27.99 C 39.89 28.29 40.68 29.08 41.58 29.98 C 45.1 33.5 45.81 37.15 43.45 39.51 Z M 42.76 28.8 C 41.37 27.41 40.62 26.67 39.98 26.37 C 40.01 25.52 38.88 25.2 38.42 25.84 C 34.81 30.93 30.54 32.22 25 32.22 C 19.45 32.22 15.18 30.93 11.57 25.84 C 11.07 25.14 9.74 25.58 10.04 26.61 C 11.93 33.28 18.37 37.17 25 37.17 C 26.84 37.16 28.68 36.86 30.43 36.26 C 30.78 36.86 31.51 37.58 32.74 38.82 C 35.03 41.11 37.44 42.37 39.74 42.51 C 35.75 45.88 30.61 47.91 25 47.91 C 12.36 47.91 2.08 37.63 2.08 24.99 C 2.08 12.36 12.36 2.08 25 2.08 C 37.63 2.08 47.91 12.36 47.91 24.99 C 47.91 28.15 47.27 31.16 46.1 33.9 C 45.6 32.32 44.56 30.6 42.76 28.8 Z" stroke-linecap="round"/>
</g>
		<g transform="matrix(1 0 0 1 -9.1161 -8.7043)" id="Vector">
<path style="stroke: none; stroke-width: 1; stroke-dasharray: none; stroke-linecap: butt; stroke-dashoffset: 0; stroke-linejoin: miter; stroke-miterlimit: 4; is-custom-font: none; font-file-url: none; fill: rgb(255,255,255); fill-rule: nonzero; opacity: 1;" transform=" translate(-15.8839, -16.2957)" d="M 15.88 12.65 C 13.55 12.65 11.21 14.78 9.67 19.04 C 9.51 19.47 10.31 20.24 10.71 19.82 C 12.21 18.24 14.01 17.61 15.88 17.61 C 17.76 17.61 19.55 18.24 21.06 19.82 C 21.46 20.24 22.25 19.47 22.1 19.04 C 20.55 14.78 18.22 12.65 15.88 12.65 Z" stroke-linecap="round"/>
</g>
		<g transform="matrix(1 0 0 1 9.11 -8.7043)" id="Vector">
<path style="stroke: none; stroke-width: 1; stroke-dasharray: none; stroke-linecap: butt; stroke-dashoffset: 0; stroke-linejoin: miter; stroke-miterlimit: 4; is-custom-font: none; font-file-url: none; fill: rgb(255,255,255); fill-rule: nonzero; opacity: 1;" transform=" translate(-34.11, -16.2957)" d="M 34.11 12.65 C 31.77 12.65 29.44 14.78 27.89 19.04 C 27.74 19.47 28.54 20.24 28.94 19.82 C 30.44 18.24 32.23 17.61 34.11 17.61 C 35.98 17.61 37.78 18.24 39.28 19.82 C 39.68 20.24 40.48 19.47 40.33 19.04 C 38.78 14.78 36.44 12.65 34.11 12.65 Z" stroke-linecap="round"/>
</g>
</g>
</g>
</svg>